HIERARCHY
ROOT teapot3
{
	OFFSET 0.000000 0.000000 0.000000
	CHANNELS 6 Xposition Yposition Zposition Yrotation Xrotation Zrotation
	End Site
	{
		OFFSET 0.000000 0.000000 0.000000
	}
}
MOTION
Frames: 195
Frame Time: 0.008333334
2.467011 4.097506 3.024654 58.616130 2.107605 -4.394684 
2.464029 4.088089 3.025454 58.334440 1.981743 -4.242798 
2.461810 4.078940 3.027068 58.000830 1.959495 -4.088959 
2.459928 4.070282 3.029726 57.665060 2.013289 -3.843353 
2.458217 4.062482 3.032989 57.263080 2.109080 -3.639618 
2.456851 4.055305 3.036047 56.871650 2.351614 -3.445343 
2.456467 4.047917 3.040018 56.473110 2.559862 -3.265198 
2.455766 4.041058 3.044059 56.085520 2.771070 -3.024475 
2.455799 4.033863 3.049153 55.692110 2.959548 -2.812866 
2.456202 4.026248 3.054935 55.240580 3.166385 -2.596466 
2.457044 4.019171 3.061031 54.795680 3.534638 -2.455566 
2.458854 4.011969 3.067642 54.336280 3.808214 -2.289673 
2.461221 4.004460 3.074907 53.932510 4.141337 -2.127380 
2.464667 3.996374 3.082140 53.473250 4.400772 -2.032593 
2.469109 3.989594 3.088713 53.016650 4.720727 -2.044098 
2.473673 3.982672 3.094099 52.598090 5.132789 -2.115692 
2.479411 3.975031 3.098096 52.211860 5.367069 -2.203552 
2.485032 3.967752 3.100170 51.827590 5.621700 -2.456512 
2.490774 3.959953 3.100849 51.506630 5.901781 -2.818939 
2.490211 3.960912 3.102157 51.312390 5.831051 -2.703339 
2.489819 3.962111 3.104981 51.044490 5.851098 -2.467194 
2.489762 3.961804 3.103927 50.814740 5.672781 -2.385437 
2.489761 3.960006 3.102426 50.584660 5.447407 -2.449554 
2.490052 3.956892 3.100251 50.367840 5.257208 -2.603424 
2.488179 3.956758 3.098217 50.212570 4.950425 -2.628113 
2.487403 3.955785 3.095900 50.046920 4.625351 -2.672150 
2.486685 3.954638 3.091646 49.839080 4.349455 -2.852875 
2.485586 3.953739 3.087493 49.686270 4.143835 -2.975037 
2.484082 3.953004 3.083030 49.510530 3.863945 -3.067719 
2.482168 3.952395 3.078410 49.331690 3.552072 -3.197571 
2.480382 3.951984 3.073847 49.248450 3.281126 -3.324280 
2.477363 3.951316 3.069149 49.144020 3.042163 -3.364319 
2.474383 3.950840 3.064851 49.083260 2.749272 -3.349701 
2.471049 3.950712 3.060450 49.007510 2.540593 -3.348328 
2.467563 3.950108 3.057130 48.929770 2.267572 -3.271240 
2.464352 3.949554 3.054229 48.901240 2.088325 -3.179260 
2.461111 3.948728 3.051740 48.814460 1.883747 -3.074982 
2.457453 3.948290 3.049292 48.698750 1.728609 -3.037354 
2.454425 3.947367 3.047555 48.627370 1.599852 -2.931488 
2.450974 3.946957 3.045305 48.515420 1.523677 -2.829987 
2.447016 3.946158 3.043353 48.411490 1.447773 -2.704559 
2.443569 3.945245 3.041490 48.349050 1.371192 -2.536163 
2.439664 3.944317 3.039504 48.273200 1.286697 -2.367157 
2.435867 3.943765 3.038075 48.221370 1.271101 -2.180786 
2.432364 3.942685 3.037212 48.109260 1.424611 -2.021454 
2.430339 3.941687 3.037520 48.007700 1.484373 -1.878235 
2.428911 3.940477 3.038658 47.842620 1.670460 -1.703308 
2.427790 3.939678 3.040361 47.658470 1.792999 -1.564606 
2.426190 3.938809 3.042433 47.425650 1.892928 -1.436310 
2.423943 3.938086 3.044851 47.198700 1.977985 -1.276062 
2.422612 3.938093 3.046874 46.937820 2.073557 -1.183594 
2.422203 3.938456 3.048769 46.567040 2.164838 -1.174286 
2.421635 3.938372 3.049248 46.222030 2.320332 -1.166077 
2.421069 3.938477 3.049391 45.863180 2.306345 -1.187897 
2.420484 3.938569 3.049371 45.490670 2.220341 -1.214905 
2.420294 3.938678 3.049319 45.067440 2.066996 -1.250854 
2.420300 3.938206 3.049077 44.684710 1.926390 -1.186920 
2.419863 3.938452 3.048042 44.047470 2.073136 -1.263885 
2.418735 3.938829 3.047350 43.478540 1.995580 -1.272339 
2.417642 3.938496 3.047035 42.904340 1.852256 -1.237305 
2.416202 3.938370 3.045499 42.275940 1.876148 -1.219910 
2.414473 3.938384 3.043643 41.523350 1.802354 -1.221588 
2.412451 3.937880 3.042165 40.807530 1.779585 -1.123749 
2.410453 3.937855 3.040154 39.922570 1.666540 -1.109894 
2.408396 3.937766 3.037692 39.037080 1.673837 -1.124115 
2.406296 3.937593 3.035504 38.018440 1.630990 -1.136017 
2.404276 3.937645 3.032930 37.036950 1.474393 -1.068512 
2.401763 3.937492 3.030070 35.883970 1.473278 -1.099152 
2.399805 3.937960 3.027483 34.694830 1.419677 -1.098450 
2.396888 3.938281 3.025016 33.477710 1.389200 -1.079651 
2.394251 3.937892 3.022933 32.263860 1.230032 -1.048157 
2.392101 3.937985 3.021048 31.007060 1.179411 -1.016632 
2.389164 3.938035 3.019908 29.804190 1.117071 -0.955231 
2.386533 3.938047 3.019758 28.623030 1.041682 -0.903168 
2.384406 3.938062 3.019969 27.417450 0.985547 -0.869965 
2.383008 3.938219 3.020618 26.225370 0.952330 -0.860718 
2.382334 3.938344 3.021452 25.039620 0.904373 -0.804901 
2.381189 3.938296 3.022830 23.865300 0.843055 -0.796539 
2.380027 3.938572 3.024056 22.663210 0.896197 -0.726532 
2.379235 3.938363 3.025252 21.489870 0.819795 -0.651337 
2.379646 3.938370 3.026241 20.285910 0.784016 -0.607147 
2.379459 3.937782 3.027771 19.060470 0.763698 -0.587097 
2.380019 3.938355 3.029968 18.000760 0.766229 -0.542419 
2.380043 3.938326 3.032326 16.777060 0.750125 -0.488953 
2.380986 3.938371 3.034161 15.772140 0.704829 -0.352234 
2.382943 3.938665 3.035452 14.805050 0.661240 -0.328613 
2.386528 3.938222 3.037483 13.859620 0.637717 -0.362213 
2.390073 3.938002 3.039936 12.996470 0.673542 -0.385193 
2.392819 3.938248 3.042212 12.227690 0.677813 -0.301209 
2.394985 3.938211 3.043916 11.535740 0.662880 -0.319855 
2.397686 3.938448 3.044574 10.849150 0.556997 -0.296570 
2.400108 3.938101 3.045344 10.312380 0.519090 -0.384796 
2.402049 3.938115 3.045758 9.836084 0.483814 -0.341950 
2.402784 3.938033 3.045722 9.451108 0.448244 -0.328552 
2.403228 3.938104 3.045148 9.086694 0.444336 -0.298370 
2.403612 3.937851 3.044897 8.789243 0.407730 -0.282532 
2.403727 3.937876 3.044275 8.545403 0.390259 -0.252258 
2.403560 3.938231 3.043237 8.327231 0.295281 -0.312439 
2.403682 3.938103 3.042012 8.208690 0.274687 -0.311005 
2.403947 3.937941 3.040807 8.132205 0.229678 -0.315186 
2.404475 3.937739 3.039467 8.085305 0.197239 -0.323883 
2.404659 3.937678 3.038790 8.079587 0.181830 -0.334290 
2.404683 3.937124 3.038473 8.115967 0.264469 -0.287720 
2.404394 3.937271 3.038767 8.109660 0.251713 -0.289764 
2.404030 3.937449 3.039284 8.113143 0.273619 -0.286438 
2.403656 3.937478 3.039871 8.097007 0.325451 -0.247864 
2.403335 3.937313 3.040385 8.133107 0.341527 -0.255310 
2.403337 3.937497 3.040816 8.133101 0.329364 -0.248779 
2.403219 3.937678 3.040964 8.121007 0.328100 -0.246033 
2.403355 3.937880 3.041630 8.117315 0.279170 -0.269775 
2.403588 3.937907 3.042541 8.108684 0.303543 -0.285706 
2.403760 3.938060 3.043317 8.113926 0.332027 -0.274170 
2.403720 3.938117 3.044038 8.117944 0.352878 -0.265076 
2.403726 3.938191 3.044260 8.118692 0.357769 -0.262573 
2.403630 3.938176 3.044120 8.112139 0.358611 -0.266022 
2.403511 3.938070 3.043559 8.103260 0.345338 -0.262451 
2.403405 3.937950 3.042778 8.100851 0.326692 -0.267822 
2.403506 3.937869 3.041948 8.148994 0.331607 -0.234100 
2.403254 3.937741 3.041467 8.129170 0.274843 -0.247864 
2.403302 3.937766 3.041198 8.123251 0.279419 -0.256805 
2.403384 3.937781 3.040757 8.120279 0.290386 -0.273407 
2.403578 3.937736 3.040666 8.124665 0.292493 -0.271057 
2.403753 3.937745 3.040177 8.104153 0.271595 -0.274414 
2.403871 3.937453 3.039841 8.111974 0.246161 -0.281860 
2.403898 3.937474 3.039707 8.108445 0.249335 -0.286408 
2.403971 3.937644 3.039843 8.126329 0.224822 -0.273682 
2.403620 3.937632 3.040498 8.132392 0.259758 -0.277405 
2.403384 3.937704 3.041218 8.134031 0.289219 -0.265778 
2.403257 3.937698 3.042078 8.124914 0.293830 -0.274323 
2.403457 3.937837 3.042658 8.108916 0.342281 -0.253235 
2.403609 3.937930 3.042878 8.086172 0.359581 -0.278992 
2.403645 3.938156 3.042979 8.101707 0.391119 -0.284454 
2.403559 3.938128 3.042786 8.094123 0.361403 -0.292511 
2.403813 3.937987 3.042616 8.118960 0.349776 -0.257446 
2.403752 3.937971 3.042562 8.113743 0.347952 -0.259583 
2.403800 3.937986 3.042520 8.121025 0.350532 -0.262878 
2.403682 3.937959 3.042149 8.114478 0.356048 -0.241760 
2.403579 3.937866 3.041820 8.114945 0.357818 -0.243958 
2.403583 3.937870 3.041284 8.106059 0.356067 -0.255127 
2.403311 3.937868 3.040770 8.116547 0.267030 -0.337921 
2.403507 3.937924 3.040195 8.101564 0.266316 -0.300201 
2.403506 3.937857 3.039983 8.114857 0.266601 -0.287811 
2.403587 3.937973 3.039983 8.121039 0.339984 -0.267517 
2.403590 3.937812 3.040328 8.114610 0.334833 -0.297363 
2.403459 3.937828 3.040725 8.094439 0.355262 -0.311646 
2.403625 3.937797 3.040993 8.117725 0.346136 -0.264130 
2.403548 3.937770 3.041366 8.117272 0.335393 -0.260010 
2.403575 3.937651 3.041559 8.127895 0.318763 -0.245941 
2.403521 3.937791 3.041643 8.107882 0.340691 -0.258301 
2.403358 3.937799 3.042144 8.116870 0.322742 -0.278076 
2.403246 3.937859 3.042504 8.111049 0.325405 -0.284668 
2.403346 3.938089 3.042516 8.106315 0.362139 -0.269989 
2.403430 3.938222 3.042609 8.109110 0.373652 -0.279816 
2.403769 3.938183 3.042752 8.123281 0.363027 -0.279694 
2.404233 3.938093 3.042840 8.130393 0.364527 -0.290192 
2.404942 3.937999 3.043245 8.191956 0.374213 -0.281860 
2.405811 3.937761 3.043999 8.303449 0.402162 -0.247833 
2.407399 3.937848 3.044832 8.451582 0.408217 -0.250305 
2.409854 3.938150 3.046160 8.621838 0.386534 -0.245972 
2.413001 3.938072 3.048015 8.773978 0.405108 -0.299866 
2.416209 3.937752 3.049854 8.942240 0.407468 -0.265778 
2.415971 3.937700 3.051812 8.973606 0.460137 -0.246307 
2.412143 3.938181 3.053612 8.843903 0.449627 -0.119965 
2.407892 3.938548 3.054815 8.692513 0.447212 -0.013947 
2.404726 3.938402 3.055710 8.545542 0.371223 -0.050659 
2.401531 3.938329 3.056571 8.439099 0.341625 -0.111359 
2.397125 3.938917 3.057806 8.401815 0.331752 -0.096100 
2.392200 3.939209 3.059515 8.350550 0.402186 -0.079987 
2.387399 3.939471 3.060512 8.324396 0.360265 -0.038208 
2.381906 3.939372 3.062159 8.295691 0.308538 -0.050720 
2.375758 3.939504 3.064645 8.174771 0.287094 -0.101624 
2.368413 3.940115 3.067540 8.072477 0.327846 -0.121765 
2.360197 3.940458 3.071893 7.925663 0.397495 -0.097290 
2.351822 3.940702 3.076753 7.784754 0.445990 -0.076874 
2.342692 3.941269 3.081902 7.563442 0.426952 -0.080963 
2.333253 3.941532 3.087497 7.367548 0.443450 -0.041931 
2.323182 3.942010 3.093787 7.184589 0.360869 -0.047974 
2.312778 3.942740 3.100916 6.974416 0.402114 0.018450 
2.302562 3.943595 3.108543 6.759826 0.428641 0.042758 
2.291622 3.944484 3.116505 6.533599 0.405623 0.034306 
2.281303 3.944873 3.124846 6.366367 0.361669 0.035695 
2.270211 3.945729 3.133602 6.172689 0.349740 0.028488 
2.258919 3.946386 3.143148 6.036146 0.396476 0.067022 
2.247696 3.947103 3.153289 5.859776 0.387016 0.004919 
2.236411 3.947435 3.163535 5.718068 0.399409 0.007966 
2.224762 3.948463 3.174151 5.632212 0.352163 0.006386 
2.213163 3.949221 3.185354 5.521653 0.403346 0.051095 
2.201722 3.950435 3.197251 5.454230 0.362951 0.063744 
2.189938 3.951306 3.208823 5.358478 0.335358 0.053811 
2.178756 3.952064 3.220736 5.306071 0.336622 0.090682 
2.167584 3.952538 3.232268 5.243780 0.374277 0.091713 
2.155740 3.953363 3.243932 5.166333 0.327266 0.061454 
2.144556 3.954081 3.254680 5.158375 0.357882 0.081208 
2.133213 3.954782 3.265278 5.167964 0.360039 0.148993 
2.122023 3.955618 3.275276 5.217234 0.364929 0.147075 
